<svg width="124" height="48" viewBox="0 0 124 48" fill="none" xmlns="http://www.w3.org/2000/svg">
<rect width="124" height="48" fill="#7D73FC"/>
<path d="M17.3605 25.8027C17.3605 25.4277 17.2277 25.1387 16.962 24.9355C16.7003 24.7324 16.2257 24.5273 15.5382 24.3203C14.8507 24.1133 14.3038 23.8828 13.8976 23.6289C13.1202 23.1406 12.7316 22.5039 12.7316 21.7188C12.7316 21.0312 13.0109 20.4648 13.5695 20.0195C14.132 19.5742 14.8605 19.3516 15.755 19.3516C16.3487 19.3516 16.878 19.4609 17.3429 19.6797C17.8077 19.8984 18.173 20.2109 18.4386 20.6172C18.7042 21.0195 18.837 21.4668 18.837 21.959H17.3605C17.3605 21.5137 17.2198 21.166 16.9386 20.916C16.6612 20.6621 16.2628 20.5352 15.7433 20.5352C15.2589 20.5352 14.882 20.6387 14.6124 20.8457C14.3468 21.0527 14.214 21.3418 14.214 21.7129C14.214 22.0254 14.3585 22.2871 14.6476 22.498C14.9366 22.7051 15.4132 22.9082 16.0773 23.1074C16.7413 23.3027 17.2745 23.5273 17.6769 23.7812C18.0792 24.0312 18.3741 24.3203 18.5616 24.6484C18.7491 24.9727 18.8429 25.3535 18.8429 25.791C18.8429 26.502 18.5695 27.0684 18.0226 27.4902C17.4796 27.9082 16.7413 28.1172 15.8077 28.1172C15.1905 28.1172 14.6222 28.0039 14.1027 27.7773C13.587 27.5469 13.1847 27.2305 12.8956 26.8281C12.6105 26.4258 12.4679 25.957 12.4679 25.4219H13.9503C13.9503 25.9062 14.1105 26.2812 14.4308 26.5469C14.7511 26.8125 15.2101 26.9453 15.8077 26.9453C16.3234 26.9453 16.7101 26.8418 16.9679 26.6348C17.2296 26.4238 17.3605 26.1465 17.3605 25.8027ZM23.158 28.1172C22.2556 28.1172 21.5232 27.834 20.9607 27.2676C20.4021 26.6973 20.1228 25.9395 20.1228 24.9941V24.8184C20.1228 24.1855 20.2439 23.6211 20.4861 23.125C20.7322 22.625 21.0759 22.2363 21.5173 21.959C21.9587 21.6816 22.4509 21.543 22.9939 21.543C23.8572 21.543 24.5232 21.8184 24.992 22.3691C25.4646 22.9199 25.7009 23.6992 25.7009 24.707V25.2812H21.5584C21.6013 25.8047 21.7752 26.2188 22.0798 26.5234C22.3884 26.8281 22.7752 26.9805 23.24 26.9805C23.8923 26.9805 24.4236 26.7168 24.8337 26.1895L25.6013 26.9219C25.3474 27.3008 25.0076 27.5957 24.5818 27.8066C24.1599 28.0137 23.6853 28.1172 23.158 28.1172ZM22.988 22.6855C22.5974 22.6855 22.281 22.8223 22.0388 23.0957C21.8005 23.3691 21.6482 23.75 21.5818 24.2383H24.2947V24.1328C24.2634 23.6562 24.1365 23.2969 23.9138 23.0547C23.6912 22.8086 23.3826 22.6855 22.988 22.6855ZM29.9633 28.1172C29.0609 28.1172 28.3285 27.834 27.766 27.2676C27.2074 26.6973 26.9281 25.9395 26.9281 24.9941V24.8184C26.9281 24.1855 27.0492 23.6211 27.2914 23.125C27.5375 22.625 27.8812 22.2363 28.3227 21.959C28.7641 21.6816 29.2562 21.543 29.7992 21.543C30.6625 21.543 31.3285 21.8184 31.7973 22.3691C32.2699 22.9199 32.5062 23.6992 32.5062 24.707V25.2812H28.3637C28.4066 25.8047 28.5805 26.2188 28.8852 26.5234C29.1937 26.8281 29.5805 26.9805 30.0453 26.9805C30.6977 26.9805 31.2289 26.7168 31.6391 26.1895L32.4066 26.9219C32.1527 27.3008 31.8129 27.5957 31.3871 27.8066C30.9652 28.0137 30.4906 28.1172 29.9633 28.1172ZM29.7934 22.6855C29.4027 22.6855 29.0863 22.8223 28.8441 23.0957C28.6059 23.3691 28.4535 23.75 28.3871 24.2383H31.1V24.1328C31.0687 23.6562 30.9418 23.2969 30.7191 23.0547C30.4965 22.8086 30.1879 22.6855 29.7934 22.6855ZM41.9216 25.8027C41.9216 25.4277 41.7887 25.1387 41.5231 24.9355C41.2614 24.7324 40.7868 24.5273 40.0993 24.3203C39.4118 24.1133 38.8649 23.8828 38.4587 23.6289C37.6813 23.1406 37.2927 22.5039 37.2927 21.7188C37.2927 21.0312 37.572 20.4648 38.1305 20.0195C38.693 19.5742 39.4216 19.3516 40.3161 19.3516C40.9098 19.3516 41.4391 19.4609 41.904 19.6797C42.3688 19.8984 42.7341 20.2109 42.9997 20.6172C43.2653 21.0195 43.3981 21.4668 43.3981 21.959H41.9216C41.9216 21.5137 41.7809 21.166 41.4997 20.916C41.2223 20.6621 40.8239 20.5352 40.3044 20.5352C39.82 20.5352 39.443 20.6387 39.1735 20.8457C38.9079 21.0527 38.7751 21.3418 38.7751 21.7129C38.7751 22.0254 38.9196 22.2871 39.2087 22.498C39.4977 22.7051 39.9743 22.9082 40.6384 23.1074C41.3024 23.3027 41.8356 23.5273 42.238 23.7812C42.6403 24.0312 42.9352 24.3203 43.1227 24.6484C43.3102 24.9727 43.404 25.3535 43.404 25.791C43.404 26.502 43.1305 27.0684 42.5837 27.4902C42.0407 27.9082 41.3024 28.1172 40.3688 28.1172C39.7516 28.1172 39.1833 28.0039 38.6637 27.7773C38.1481 27.5469 37.7458 27.2305 37.4567 26.8281C37.1716 26.4258 37.029 25.957 37.029 25.4219H38.5114C38.5114 25.9062 38.6716 26.2812 38.9919 26.5469C39.3122 26.8125 39.7712 26.9453 40.3688 26.9453C40.8845 26.9453 41.2712 26.8418 41.529 26.6348C41.7907 26.4238 41.9216 26.1465 41.9216 25.8027ZM44.6605 24.7715C44.6605 24.1504 44.7835 23.5918 45.0296 23.0957C45.2757 22.5957 45.6214 22.2129 46.0667 21.9473C46.512 21.6777 47.0238 21.543 47.6019 21.543C48.4573 21.543 49.1507 21.8184 49.682 22.3691C50.2171 22.9199 50.5062 23.6504 50.5491 24.5605L50.555 24.8945C50.555 25.5195 50.4339 26.0781 50.1917 26.5703C49.9534 27.0625 49.6097 27.4434 49.1605 27.7129C48.7152 27.9824 48.1995 28.1172 47.6136 28.1172C46.7191 28.1172 46.0023 27.8203 45.4632 27.2266C44.928 26.6289 44.6605 25.834 44.6605 24.8418V24.7715ZM46.0843 24.8945C46.0843 25.5469 46.2191 26.0586 46.4886 26.4297C46.7581 26.7969 47.1331 26.9805 47.6136 26.9805C48.0941 26.9805 48.4671 26.793 48.7327 26.418C49.0023 26.043 49.137 25.4941 49.137 24.7715C49.137 24.1309 48.9984 23.623 48.721 23.248C48.4476 22.873 48.0745 22.6855 47.6019 22.6855C47.137 22.6855 46.7679 22.8711 46.4945 23.2422C46.221 23.6094 46.0843 24.1602 46.0843 24.8945ZM55.9599 27.3789C55.542 27.8711 54.9482 28.1172 54.1787 28.1172C53.4912 28.1172 52.9697 27.916 52.6142 27.5137C52.2627 27.1113 52.0869 26.5293 52.0869 25.7676V21.6602H53.5107V25.75C53.5107 26.5547 53.8447 26.957 54.5127 26.957C55.2041 26.957 55.6709 26.709 55.913 26.2129V21.6602H57.3369V28H55.9951L55.9599 27.3789ZM62.4664 22.9609C62.2789 22.9297 62.0855 22.9141 61.8863 22.9141C61.234 22.9141 60.7945 23.1641 60.568 23.6641V28H59.1441V21.6602H60.5035L60.5387 22.3691C60.8824 21.8184 61.359 21.543 61.9684 21.543C62.1715 21.543 62.3395 21.5703 62.4723 21.625L62.4664 22.9609ZM66.2131 26.9805C66.5686 26.9805 66.8635 26.877 67.0979 26.6699C67.3323 26.4629 67.4573 26.207 67.4729 25.9023H68.8147C68.7991 26.2969 68.676 26.666 68.4455 27.0098C68.2151 27.3496 67.9026 27.6191 67.508 27.8184C67.1135 28.0176 66.6877 28.1172 66.2307 28.1172C65.344 28.1172 64.6409 27.8301 64.1213 27.2559C63.6018 26.6816 63.342 25.8887 63.342 24.877V24.7305C63.342 23.7656 63.5998 22.9941 64.1155 22.416C64.6311 21.834 65.3342 21.543 66.2248 21.543C66.9788 21.543 67.592 21.7637 68.0647 22.2051C68.5413 22.6426 68.7913 23.2188 68.8147 23.9336H67.4729C67.4573 23.5703 67.3323 23.2715 67.0979 23.0371C66.8674 22.8027 66.5725 22.6855 66.2131 22.6855C65.7522 22.6855 65.3967 22.8535 65.1467 23.1895C64.8967 23.5215 64.7698 24.0273 64.7659 24.707V24.9355C64.7659 25.623 64.8889 26.1367 65.135 26.4766C65.385 26.8125 65.7444 26.9805 66.2131 26.9805ZM73.0419 28.1172C72.1395 28.1172 71.4071 27.834 70.8446 27.2676C70.286 26.6973 70.0067 25.9395 70.0067 24.9941V24.8184C70.0067 24.1855 70.1278 23.6211 70.37 23.125C70.6161 22.625 70.9598 22.2363 71.4013 21.959C71.8427 21.6816 72.3348 21.543 72.8778 21.543C73.7411 21.543 74.4071 21.8184 74.8759 22.3691C75.3485 22.9199 75.5848 23.6992 75.5848 24.707V25.2812H71.4423C71.4852 25.8047 71.6591 26.2188 71.9638 26.5234C72.2723 26.8281 72.6591 26.9805 73.1239 26.9805C73.7763 26.9805 74.3075 26.7168 74.7177 26.1895L75.4852 26.9219C75.2313 27.3008 74.8915 27.5957 74.4657 27.8066C74.0438 28.0137 73.5692 28.1172 73.0419 28.1172ZM72.872 22.6855C72.4813 22.6855 72.1649 22.8223 71.9227 23.0957C71.6845 23.3691 71.5321 23.75 71.4657 24.2383H74.1786V24.1328C74.1473 23.6562 74.0204 23.2969 73.7977 23.0547C73.5751 22.8086 73.2665 22.6855 72.872 22.6855Z" fill="#EDECFF"/>
<g clip-path="url(#clip0_37_1559)">
<path d="M108.999 21.4611C108.999 20.3212 108.633 19.2504 107.934 18.3178C108.201 17.4197 108.267 16.2798 108.201 14.9672C108.167 14.4145 107.735 14 107.202 14C106.903 14 104.374 14.0345 102.91 15.3817C101.646 15.1399 100.315 15.1399 99.0176 15.3817C97.5869 14.0345 95.0583 14 94.7255 14C94.1932 14 93.7607 14.4145 93.7274 14.9672C93.6276 16.2798 93.7274 17.4197 93.9936 18.3178C93.2949 19.285 92.9289 20.3558 92.9289 21.4611C92.9289 23.8791 94.7255 26.0553 97.4538 27.0915C97.354 27.2988 97.2875 27.5406 97.2209 27.7824C94.3263 27.4715 92.9621 24.7427 92.8956 24.639C92.6627 24.1209 92.0638 23.9136 91.5647 24.19C91.0657 24.4318 90.866 25.0535 91.1322 25.5717C91.1987 25.7444 93.0287 29.4404 97.0546 29.8549V32.9637C97.0546 33.5509 97.4871 34 98.0527 34H103.875C104.441 34 104.873 33.5509 104.873 32.9637V28.8532C104.873 28.2314 104.74 27.6442 104.507 27.1261C107.202 26.0553 108.999 23.9136 108.999 21.4611Z" fill="white"/>
</g>
<defs>
<clipPath id="clip0_37_1559">
<rect width="18" height="20" fill="white" transform="translate(91 14)"/>
</clipPath>
</defs>
</svg>
