<svg width="140" height="80" viewBox="0 0 140 80" fill="none" xmlns="http://www.w3.org/2000/svg">
<g filter="url(#filter0_d_37_1553)">
<rect width="108" height="48" transform="translate(16 8)" fill="#7D73FC"/>
<path d="M33.572 33.8027C33.572 33.4277 33.4392 33.1387 33.1736 32.9355C32.9119 32.7324 32.4373 32.5273 31.7498 32.3203C31.0623 32.1133 30.5154 31.8828 30.1091 31.6289C29.3318 31.1406 28.9431 30.5039 28.9431 29.7188C28.9431 29.0312 29.2224 28.4648 29.781 28.0195C30.3435 27.5742 31.072 27.3516 31.9666 27.3516C32.5603 27.3516 33.0896 27.4609 33.5545 27.6797C34.0193 27.8984 34.3845 28.2109 34.6502 28.6172C34.9158 29.0195 35.0486 29.4668 35.0486 29.959H33.572C33.572 29.5137 33.4314 29.166 33.1502 28.916C32.8728 28.6621 32.4744 28.5352 31.9548 28.5352C31.4705 28.5352 31.0935 28.6387 30.824 28.8457C30.5584 29.0527 30.4255 29.3418 30.4255 29.7129C30.4255 30.0254 30.5701 30.2871 30.8591 30.498C31.1482 30.7051 31.6248 30.9082 32.2888 31.1074C32.9529 31.3027 33.4861 31.5273 33.8884 31.7812C34.2908 32.0312 34.5857 32.3203 34.7732 32.6484C34.9607 32.9727 35.0545 33.3535 35.0545 33.791C35.0545 34.502 34.781 35.0684 34.2341 35.4902C33.6912 35.9082 32.9529 36.1172 32.0193 36.1172C31.4021 36.1172 30.8337 36.0039 30.3142 35.7773C29.7986 35.5469 29.3962 35.2305 29.1072 34.8281C28.822 34.4258 28.6795 33.957 28.6795 33.4219H30.1619C30.1619 33.9062 30.322 34.2812 30.6423 34.5469C30.9627 34.8125 31.4216 34.9453 32.0193 34.9453C32.5349 34.9453 32.9216 34.8418 33.1795 34.6348C33.4412 34.4238 33.572 34.1465 33.572 33.8027ZM39.3695 36.1172C38.4672 36.1172 37.7348 35.834 37.1723 35.2676C36.6137 34.6973 36.3344 33.9395 36.3344 32.9941V32.8184C36.3344 32.1855 36.4555 31.6211 36.6977 31.125C36.9437 30.625 37.2875 30.2363 37.7289 29.959C38.1703 29.6816 38.6625 29.543 39.2055 29.543C40.0687 29.543 40.7348 29.8184 41.2035 30.3691C41.6762 30.9199 41.9125 31.6992 41.9125 32.707V33.2812H37.7699C37.8129 33.8047 37.9867 34.2188 38.2914 34.5234C38.6 34.8281 38.9867 34.9805 39.4516 34.9805C40.1039 34.9805 40.6352 34.7168 41.0453 34.1895L41.8129 34.9219C41.559 35.3008 41.2191 35.5957 40.7934 35.8066C40.3715 36.0137 39.8969 36.1172 39.3695 36.1172ZM39.1996 30.6855C38.809 30.6855 38.4926 30.8223 38.2504 31.0957C38.0121 31.3691 37.8598 31.75 37.7934 32.2383H40.5062V32.1328C40.475 31.6562 40.348 31.2969 40.1254 31.0547C39.9027 30.8086 39.5941 30.6855 39.1996 30.6855ZM46.1748 36.1172C45.2725 36.1172 44.5401 35.834 43.9776 35.2676C43.419 34.6973 43.1397 33.9395 43.1397 32.9941V32.8184C43.1397 32.1855 43.2608 31.6211 43.503 31.125C43.7491 30.625 44.0928 30.2363 44.5342 29.959C44.9756 29.6816 45.4678 29.543 46.0108 29.543C46.8741 29.543 47.5401 29.8184 48.0088 30.3691C48.4815 30.9199 48.7178 31.6992 48.7178 32.707V33.2812H44.5752C44.6182 33.8047 44.792 34.2188 45.0967 34.5234C45.4053 34.8281 45.792 34.9805 46.2569 34.9805C46.9092 34.9805 47.4405 34.7168 47.8506 34.1895L48.6182 34.9219C48.3643 35.3008 48.0245 35.5957 47.5987 35.8066C47.1768 36.0137 46.7022 36.1172 46.1748 36.1172ZM46.0049 30.6855C45.6143 30.6855 45.2979 30.8223 45.0557 31.0957C44.8174 31.3691 44.6651 31.75 44.5987 32.2383H47.3116V32.1328C47.2803 31.6562 47.1534 31.2969 46.9307 31.0547C46.708 30.8086 46.3995 30.6855 46.0049 30.6855ZM55.1566 34.8164H59.0296V36H53.6741V27.4688H55.1566V34.8164ZM61.9033 36H60.4795V29.6602H61.9033V36ZM60.3916 28.0137C60.3916 27.7949 60.4599 27.6133 60.5966 27.4688C60.7373 27.3242 60.9365 27.252 61.1943 27.252C61.4521 27.252 61.6513 27.3242 61.792 27.4688C61.9326 27.6133 62.0029 27.7949 62.0029 28.0137C62.0029 28.2285 61.9326 28.4082 61.792 28.5527C61.6513 28.6934 61.4521 28.7637 61.1943 28.7637C60.9365 28.7637 60.7373 28.6934 60.5966 28.5527C60.4599 28.4082 60.3916 28.2285 60.3916 28.0137ZM66.0543 34.1953L67.3961 29.6602H68.8668L66.6695 36H65.4332L63.2184 29.6602H64.6949L66.0543 34.1953ZM72.8303 36.1172C71.928 36.1172 71.1955 35.834 70.633 35.2676C70.0745 34.6973 69.7952 33.9395 69.7952 32.9941V32.8184C69.7952 32.1855 69.9163 31.6211 70.1584 31.125C70.4045 30.625 70.7483 30.2363 71.1897 29.959C71.6311 29.6816 72.1233 29.543 72.6663 29.543C73.5295 29.543 74.1955 29.8184 74.6643 30.3691C75.137 30.9199 75.3733 31.6992 75.3733 32.707V33.2812H71.2307C71.2737 33.8047 71.4475 34.2188 71.7522 34.5234C72.0608 34.8281 72.4475 34.9805 72.9123 34.9805C73.5647 34.9805 74.0959 34.7168 74.5061 34.1895L75.2737 34.9219C75.0198 35.3008 74.6799 35.5957 74.2541 35.8066C73.8323 36.0137 73.3577 36.1172 72.8303 36.1172ZM72.6604 30.6855C72.2698 30.6855 71.9534 30.8223 71.7112 31.0957C71.4729 31.3691 71.3205 31.75 71.2541 32.2383H73.967V32.1328C73.9358 31.6562 73.8088 31.2969 73.5862 31.0547C73.3635 30.8086 73.0549 30.6855 72.6604 30.6855Z" fill="white"/>
<path fill-rule="evenodd" clip-rule="evenodd" d="M93 32C93 28.134 96.134 25 100 25C100.552 25 101 24.5523 101 24C101 23.4477 100.552 23 100 23C95.0294 23 91 27.0294 91 32C91 36.9706 95.0294 41 100 41C104.971 41 109 36.9706 109 32C109 31.4477 108.552 31 108 31C107.448 31 107 31.4477 107 32C107 35.866 103.866 39 100 39C96.134 39 93 35.866 93 32ZM104 23C103.448 23 103 23.4477 103 24C103 24.5523 103.448 25 104 25H105.586L99.2929 31.2929C98.9024 31.6834 98.9024 32.3166 99.2929 32.7071C99.6834 33.0976 100.317 33.0976 100.707 32.7071L107 26.4142V28C107 28.5523 107.448 29 108 29C108.552 29 109 28.5523 109 28V24C109 23.4477 108.552 23 108 23H104Z" fill="white"/>
</g>
<defs>
<filter id="filter0_d_37_1553" x="0" y="0" width="140" height="80" filterUnits="userSpaceOnUse" color-interpolation-filters="sRGB">
<feFlood flood-opacity="0" result="BackgroundImageFix"/>
<feColorMatrix in="SourceAlpha" type="matrix" values="0 0 0 0 0 0 0 0 0 0 0 0 0 0 0 0 0 0 127 0" result="hardAlpha"/>
<feOffset dy="8"/>
<feGaussianBlur stdDeviation="8"/>
<feColorMatrix type="matrix" values="0 0 0 0 0.490196 0 0 0 0 0.45098 0 0 0 0 0.988235 0 0 0 0.48 0"/>
<feBlend mode="normal" in2="BackgroundImageFix" result="effect1_dropShadow_37_1553"/>
<feBlend mode="normal" in="SourceGraphic" in2="effect1_dropShadow_37_1553" result="shape"/>
</filter>
</defs>
</svg>
